<svg xmlns="http://www.w3.org/2000/svg" xmlns:xlink="http://www.w3.org/1999/xlink" width="4000" zoomAndPan="magnify" viewBox="0 0 3000 2999.999989" height="4000" preserveAspectRatio="xMidYMid meet" version="1.0"><path fill="#ff6600" d="M 2802.777344 648.609375 L 2585.832031 1038.054688 L 1880.554688 1038.054688 L 1664.445312 650.277344 L 1664.445312 648.609375 Z M 2802.777344 648.609375 " fill-opacity="1" fill-rule="nonzero"/><path fill="#ff6600" d="M 2802.777344 2351.390625 L 2585.832031 1966.667969 L 1880.554688 1966.667969 L 1664.445312 2349.722656 L 1664.445312 2351.390625 Z M 2802.777344 2351.390625 " fill-opacity="1" fill-rule="nonzero"/><path fill="#ff6600" d="M 1880.554688 1348.332031 L 2586.667969 1348.332031 L 2586.667969 1645.832031 L 1880.554688 1645.832031 Z M 1880.554688 1348.332031 " fill-opacity="1" fill-rule="nonzero"/><path fill="#ff6600" d="M 1603.332031 1806.109375 C 1604.445312 1879.167969 1607.222656 2056.109375 1520.277344 2196.667969 C 1434.445312 2335 1320.554688 2342.777344 1294.167969 2343.609375 L 276.667969 2343.609375 C 259.167969 2344.445312 241.667969 2345 224.167969 2345.832031 L 428.054688 1946.667969 L 1233.890625 1946.667969 L 1233.890625 2113.054688 L 1336.945312 1953.890625 L 1429.167969 1811.390625 L 1366.667969 1714.722656 L 1334.445312 1665 L 1233.890625 1509.445312 L 1233.890625 1673.332031 L 391.109375 1673.332031 C 369.722656 1659.167969 349.722656 1641.390625 331.109375 1620.554688 C 275.277344 1558.609375 233.054688 1469.722656 211.945312 1366.390625 C 211.945312 1366.390625 211.945312 1366.390625 211.945312 1366.109375 C 202.5 1319.445312 197.222656 1269.445312 197.222656 1217.5 L 197.222656 1147.222656 C 197.222656 969.445312 257.777344 813.332031 348.890625 725.554688 C 371.667969 703.609375 396.109375 685.832031 422.222656 673.332031 C 467.222656 651.390625 504.445312 650.277344 520 650 C 568.890625 649.167969 800 648.332031 1138.890625 648.890625 C 1245.277344 649.167969 1362.5 649.445312 1487.777344 650 C 1492.222656 650 1496.386719 650 1500.832031 650 L 1578.332031 807.5 L 1581.945312 815 L 1694.722656 1043.890625 L 1138.609375 1043.890625 L 1138.609375 1044.722656 L 580.277344 1044.722656 L 580.277344 880.832031 L 479.722656 1036.390625 L 385 1182.777344 L 446.945312 1278.609375 L 477.222656 1325.277344 L 580.277344 1484.445312 L 580.277344 1318.054688 L 1388.054688 1318.054688 C 1418.609375 1334.722656 1478.054688 1374.445312 1527.5 1464.445312 C 1598.609375 1593.332031 1602.222656 1740.277344 1603.332031 1806.109375 Z M 1603.332031 1806.109375 " fill-opacity="1" fill-rule="nonzero"/></svg>